<svg 
  xmlns="http://www.w3.org/2000/svg"
  xmlns:xlink="http://www.w3.org/1999/xlink"
  width="20px" height="25px">
<path fill-rule="evenodd"  fill="rgb(203, 0, 61)"
  d="M14.843,25.6 C14.720,25.6 14.603,24.993 14.496,24.965 C11.332,24.150 7.956,21.16 4.447,15.647 C0.941,10.280 0.498,6.47 0.169,3.65 C0.482,1.675 4.510,0.157 4.550,0.142 C5.538,0.219 6.645,0.148 6.964,0.883 C7.141,1.288 8.754,5.470 8.924,5.940 C9.121,6.480 8.904,7.158 8.340,7.753 C8.70,8.38 7.210,8.893 6.746,9.350 C6.988,9.908 7.589,11.150 8.883,13.126 C10.176,15.104 11.83,16.171 11.505,16.628 C12.153,16.454 13.362,16.132 13.758,16.39 C14.555,15.852 15.314,15.976 15.746,16.382 C16.143,16.752 19.376,20.13 19.671,20.325 C19.914,20.583 20.40,20.954 20.14,21.343 C19.980,21.835 19.717,22.306 19.273,22.670 C19.246,22.693 16.317,25.6 14.843,25.6 ZM5.373,1.305 C5.275,1.305 5.170,1.325 5.62,1.365 C3.893,1.789 1.755,2.907 1.542,3.348 C0.809,6.628 3.370,11.477 5.649,14.963 C7.928,18.449 11.372,22.792 14.848,23.694 C15.459,23.684 17.531,22.353 18.342,21.685 C18.621,21.458 18.628,21.231 18.599,21.174 C18.368,20.932 15.138,17.671 14.748,17.307 C14.726,17.293 14.422,17.239 14.100,17.313 C13.558,17.439 11.477,18.1 11.475,18.2 L11.83,18.108 L10.790,17.843 C10.744,17.801 9.615,16.769 7.681,13.810 C5.745,10.853 5.279,9.443 5.261,9.384 L5.143,9.21 L5.423,8.744 C5.425,8.743 6.915,7.276 7.284,6.886 C7.530,6.625 7.596,6.410 7.588,6.351 C7.428,5.915 5.826,1.756 5.659,1.378 C5.653,1.376 5.558,1.305 5.373,1.305 Z"/>
</svg>